<svg width="10" height="6" viewBox="0 0 10 6" fill="none" xmlns="http://www.w3.org/2000/svg">
<path fill-rule="evenodd" clip-rule="evenodd" d="M0.208537 0.22411C0.342236 0.0922487 0.523471 0.0181838 0.712433 0.0181838C0.901394 0.0181838 1.08263 0.0922487 1.21633 0.22411L4.99079 3.95131L8.76526 0.22411C8.83054 0.154929 8.90926 0.0994417 8.99673 0.0609567C9.0842 0.0224717 9.17862 0.0017777 9.27436 0.000109583C9.3701 -0.00155854 9.46521 0.0158332 9.55399 0.0512473C9.64278 0.0866614 9.72344 0.139372 9.79115 0.206236C9.85886 0.273099 9.91224 0.352744 9.9481 0.440421C9.98397 0.528098 10.0016 0.62201 9.99989 0.716554C9.9982 0.811098 9.97724 0.904337 9.93827 0.99071C9.8993 1.07708 9.84311 1.15482 9.77305 1.21928L5.49469 5.44407C5.36099 5.57593 5.17975 5.65 4.99079 5.65C4.80183 5.65 4.6206 5.57593 4.4869 5.44407L0.208537 1.21928C0.0750041 1.08726 0 0.908292 0 0.721696C0 0.535101 0.0750041 0.356135 0.208537 0.22411Z" fill="#152242"/>
</svg>
