<svg width="13" height="8" viewBox="0 0 13 8" fill="none" xmlns="http://www.w3.org/2000/svg">
<path fill-rule="evenodd" clip-rule="evenodd" d="M1.59418 1.22001C1.7348 1.07956 1.92543 1.00067 2.12418 1.00067C2.32293 1.00067 2.51355 1.07956 2.65418 1.22001L6.62418 5.19001L10.5942 1.22001C10.7364 1.08753 10.9244 1.01541 11.1187 1.01884C11.313 1.02226 11.4984 1.10098 11.6358 1.23839C11.7732 1.3758 11.8519 1.56119 11.8554 1.75549C11.8588 1.94979 11.7867 2.13784 11.6542 2.28001L7.15418 6.78001C7.01355 6.92046 6.82293 6.99935 6.62418 6.99935C6.42543 6.99935 6.2348 6.92046 6.09418 6.78001L1.59418 2.28001C1.45373 2.13939 1.37484 1.94876 1.37484 1.75001C1.37484 1.55126 1.45373 1.36064 1.59418 1.22001Z" fill="white"/>
</svg>
