<svg width="13" height="12" viewBox="0 0 13 12" fill="none" xmlns="http://www.w3.org/2000/svg">
<path fill-rule="evenodd" clip-rule="evenodd" d="M4.03949 10.7807C3.89904 10.64 3.82015 10.4494 3.82015 10.2507C3.82015 10.0519 3.89904 9.86129 4.03949 9.72066L8.00949 5.75066L4.03949 1.78066C3.9658 1.712 3.9067 1.6292 3.86571 1.5372C3.82472 1.4452 3.80267 1.34588 3.8009 1.24518C3.79912 1.14448 3.81765 1.04445 3.85537 0.951062C3.89309 0.857674 3.94923 0.772841 4.02045 0.701622C4.09167 0.630403 4.1765 0.574258 4.26989 0.536537C4.36328 0.498816 4.46331 0.480291 4.56401 0.482068C4.66472 0.483845 4.76403 0.505887 4.85603 0.546879C4.94803 0.587871 5.03083 0.646973 5.09949 0.72066L9.59949 5.22066C9.73994 5.36129 9.81883 5.55191 9.81883 5.75066C9.81883 5.94941 9.73994 6.14003 9.59949 6.28066L5.09949 10.7807C4.95886 10.9211 4.76824 11 4.56949 11C4.37074 11 4.18011 10.9211 4.03949 10.7807Z" fill="#737A8E"/>
</svg>
