<svg width="16" height="13" viewBox="0 0 16 13" fill="none" xmlns="http://www.w3.org/2000/svg">
<g clip-path="url(#clip0_395_1744)">
<path d="M14 0.5H2C0.89543 0.5 0 1.39543 0 2.5V10.5C0 11.6046 0.89543 12.5 2 12.5H14C15.1046 12.5 16 11.6046 16 10.5V2.5C16 1.39543 15.1046 0.5 14 0.5Z" fill="white"/>
<path fill-rule="evenodd" clip-rule="evenodd" d="M1.994 1.5H14.006C14.556 1.5 15 1.945 15 2.494V2.908C15 3.08417 14.9535 3.25722 14.8652 3.40964C14.7769 3.56206 14.6499 3.68845 14.497 3.776L8 7.5L1.503 3.776C1.35013 3.68845 1.22311 3.56206 1.13478 3.40964C1.04645 3.25722 0.999956 3.08417 1 2.908V2.494C1 1.944 1.445 1.5 1.994 1.5Z" fill="#152242"/>
</g>
<defs>
<clipPath id="clip0_395_1744">
<rect width="16" height="12" fill="white" transform="translate(0 0.5)"/>
</clipPath>
</defs>
</svg>
