<svg width="28" height="28" viewBox="0 0 28 28" fill="none" xmlns="http://www.w3.org/2000/svg">
<g clip-path="url(#clip0_395_1765)">
<mask id="mask0_395_1765" style="mask-type:luminance" maskUnits="userSpaceOnUse" x="0" y="0" width="28" height="28">
<path d="M0 14C0 6.26801 6.26801 0 14 0C21.732 0 28 6.26801 28 14C28 21.732 21.732 28 14 28C6.26801 28 0 21.732 0 14Z" fill="white"/>
</mask>
<g mask="url(#mask0_395_1765)">
<path d="M0 14C0 6.26801 6.26801 0 14 0C21.732 0 28 6.26801 28 14C28 21.732 21.732 28 14 28C6.26801 28 0 21.732 0 14Z" fill="url(#paint0_linear_395_1765)"/>
<path fill-rule="evenodd" clip-rule="evenodd" d="M11.6679 27.8065V17.9396H8.16797V14.0507H11.6679V10.9396C11.6679 7.43956 13.9235 5.49512 17.1125 5.49512C18.1235 5.49512 19.2125 5.65067 20.2235 5.80622V9.38403H18.4347C16.7235 9.38403 16.3347 10.2396 16.3347 11.3285V14.0507H20.0679L19.4457 17.9396H16.3347V27.8065C15.5758 27.9339 14.7963 28.0001 14.0013 28.0001C13.2063 28.0001 12.4268 27.9339 11.6679 27.8065Z" fill="white"/>
</g>
</g>
<defs>
<linearGradient id="paint0_linear_395_1765" x1="14" y1="27.1819" x2="14" y2="0" gradientUnits="userSpaceOnUse">
<stop stop-color="#0062E0"/>
<stop offset="1" stop-color="#19AFFF"/>
</linearGradient>
<clipPath id="clip0_395_1765">
<rect width="28" height="28" fill="white"/>
</clipPath>
</defs>
</svg>
