<svg width="28" height="28" viewBox="0 0 28 28" fill="none" xmlns="http://www.w3.org/2000/svg">
<g clip-path="url(#clip0_395_1775)">
<path d="M0 14C0 6.26801 6.26801 0 14 0C21.732 0 28 6.26801 28 14C28 21.732 21.732 28 14 28C6.26801 28 0 21.732 0 14Z" fill="url(#paint0_radial_395_1775)"/>
<path d="M0 14C0 6.26801 6.26801 0 14 0C21.732 0 28 6.26801 28 14C28 21.732 21.732 28 14 28C6.26801 28 0 21.732 0 14Z" fill="url(#paint1_radial_395_1775)"/>
<path d="M14.0008 5.25C11.6245 5.25 11.3262 5.2604 10.3929 5.30287C9.46137 5.34552 8.82551 5.493 8.26914 5.70938C7.69365 5.93287 7.20546 6.23182 6.71911 6.71836C6.23238 7.20472 5.93342 7.69289 5.7092 8.2682C5.49227 8.82473 5.34461 9.46076 5.30268 10.3919C5.26094 11.3252 5.25 11.6237 5.25 14C5.25 16.3763 5.26057 16.6736 5.30287 17.607C5.34571 18.5385 5.49318 19.1743 5.70938 19.7307C5.93305 20.3062 6.23201 20.7944 6.71856 21.2807C7.20473 21.7675 7.69291 22.0672 8.26805 22.2906C8.82481 22.507 9.46076 22.6544 10.3921 22.6971C11.3255 22.7396 11.6235 22.75 13.9997 22.75C16.3763 22.75 16.6736 22.7396 17.6069 22.6971C18.5385 22.6544 19.175 22.507 19.7318 22.2906C20.3071 22.0672 20.7946 21.7675 21.2807 21.2807C21.7675 20.7944 22.0664 20.3062 22.2906 19.7309C22.5057 19.1743 22.6534 18.5384 22.6971 17.6072C22.7391 16.6738 22.75 16.3763 22.75 14C22.75 11.6237 22.7391 11.3254 22.6971 10.3921C22.6534 9.46059 22.5057 8.82473 22.2906 8.26838C22.0664 7.69289 21.7675 7.20472 21.2807 6.71836C20.794 6.23165 20.3073 5.93268 19.7312 5.70938C19.1734 5.493 18.5372 5.34552 17.6057 5.30287C16.6723 5.2604 16.3752 5.25 13.9981 5.25H14.0008ZM13.2158 6.82682C13.4488 6.82646 13.7088 6.82682 14.0008 6.82682C16.3371 6.82682 16.614 6.83521 17.5366 6.87713C18.3897 6.91615 18.8528 7.0587 19.1612 7.17847C19.5696 7.33706 19.8607 7.52664 20.1667 7.83289C20.473 8.13914 20.6625 8.43081 20.8215 8.83916C20.9413 9.14725 21.084 9.61021 21.1229 10.4633C21.1648 11.3858 21.1739 11.6629 21.1739 13.998C21.1739 16.3332 21.1648 16.6102 21.1229 17.5326C21.0838 18.3858 20.9413 18.8488 20.8215 19.1568C20.6629 19.5652 20.473 19.8559 20.1667 20.162C19.8605 20.4683 19.5697 20.6579 19.1612 20.8164C18.8531 20.9367 18.3897 21.0789 17.5366 21.118C16.6141 21.1599 16.3371 21.169 14.0008 21.169C11.6644 21.169 11.3874 21.1599 10.4651 21.118C9.61196 21.0786 9.14891 20.936 8.8403 20.8163C8.43194 20.6576 8.14027 20.4681 7.83402 20.1618C7.52776 19.8556 7.33817 19.5647 7.17921 19.1561C7.05945 18.848 6.91671 18.3851 6.87788 17.5319C6.83595 16.6095 6.82757 16.3324 6.82757 13.9958C6.82757 11.6592 6.83595 11.3836 6.87788 10.4611C6.91689 9.60802 7.05945 9.14506 7.17921 8.83663C7.33781 8.42825 7.52776 8.13659 7.83402 7.83034C8.14027 7.52409 8.43194 7.3345 8.8403 7.17554C9.14874 7.05523 9.61196 6.91305 10.4651 6.87385C11.2723 6.8374 11.5851 6.82646 13.2158 6.82463V6.82682ZM18.6715 8.27969C18.0918 8.27969 17.6215 8.74945 17.6215 9.32934C17.6215 9.90902 18.0918 10.3793 18.6715 10.3793C19.2512 10.3793 19.7215 9.90902 19.7215 9.32934C19.7215 8.74963 19.2512 8.27969 18.6715 8.27969ZM14.0008 9.50653C11.5193 9.50653 9.50731 11.5185 9.50731 14C9.50731 16.4815 11.5193 18.4926 14.0008 18.4926C16.4824 18.4926 18.4936 16.4815 18.4936 14C18.4936 11.5185 16.4824 9.50653 14.0008 9.50653ZM14.0008 11.0834C15.6116 11.0834 16.9175 12.3891 16.9175 14C16.9175 15.6107 15.6116 16.9166 14.0008 16.9166C12.3899 16.9166 11.0841 15.6107 11.0841 14C11.0841 12.3891 12.3899 11.0834 14.0008 11.0834Z" fill="white"/>
</g>
<defs>
<radialGradient id="paint0_radial_395_1775" cx="0" cy="0" r="1" gradientUnits="userSpaceOnUse" gradientTransform="translate(7.43754 30.1566) rotate(-90) scale(27.7501 25.8098)">
<stop stop-color="#FFDD55"/>
<stop offset="0.1" stop-color="#FFDD55"/>
<stop offset="0.5" stop-color="#FF543E"/>
<stop offset="1" stop-color="#C837AB"/>
</radialGradient>
<radialGradient id="paint1_radial_395_1775" cx="0" cy="0" r="1" gradientUnits="userSpaceOnUse" gradientTransform="translate(-4.69015 2.01708) rotate(78.6806) scale(12.4044 51.1314)">
<stop stop-color="#3771C8"/>
<stop offset="0.128" stop-color="#3771C8"/>
<stop offset="1" stop-color="#6600FF" stop-opacity="0"/>
</radialGradient>
<clipPath id="clip0_395_1775">
<rect width="28" height="28" fill="white"/>
</clipPath>
</defs>
</svg>
