<svg width="156" height="20" viewBox="0 0 156 20" fill="none" xmlns="http://www.w3.org/2000/svg">
<path d="M1.104 7.17009C0.452924 7.17009 0 7.46335 0 7.8849V19.2852C0 19.7067 0.452928 20 1.104 20H3.59508C3.84984 20 4.16123 19.9633 4.3877 19.7984C4.64246 19.6334 4.69908 19.4318 4.69908 19.2852V7.8849C4.69908 7.73827 4.64247 7.53666 4.3877 7.3717C4.16123 7.20675 3.84985 7.17009 3.59508 7.17009L1.104 7.17009Z" fill="#0C62D5"/>
<path d="M1.104 1.01119e-06C0.452924 1.01119e-06 0 0.083788 0 0.204232V3.46146C0 3.5819 0.452928 3.66569 1.104 3.66569H3.59508C3.84984 3.66569 4.16123 3.65522 4.3877 3.60809C4.64246 3.56096 4.69908 3.50335 4.69908 3.46146V0.204232C4.69908 0.162338 4.64247 0.104734 4.3877 0.0576033C4.16123 0.0104733 3.84985 0 3.59508 0L1.104 1.01119e-06Z" fill="#0C62D5"/>
<path d="M11.6991 4.26251C11.6991 4.34819 11.7276 4.37675 11.8133 4.37675H31.2639C31.9494 4.37675 32.2635 4.491 32.4064 4.69093C32.5492 4.83374 32.692 5.11936 32.692 5.80484V14.2305C32.692 15.3445 32.3778 15.6301 31.2639 15.6301H11.8133C11.7276 15.6301 11.6991 15.6586 11.6991 15.7443V18.8861C11.6991 19.543 12.1561 20 12.813 20H31.9208C35.5767 20 37.4047 18.1721 37.4047 14.4876V5.51922C37.4047 1.83476 35.5767 0.00680542 31.9208 0.00680542H12.813C12.5845 0.00680542 12.3846 0.0639264 12.1846 0.206736L11.9561 0.406671C11.8704 0.492355 11.8133 0.606604 11.7848 0.692291C11.7562 0.720852 11.7562 0.749411 11.7562 0.806537C11.7276 1.00647 11.6991 1.09215 11.6991 1.12071L11.6991 4.26251Z" fill="#0C62D5"/>
<path d="M41.9463 0.00681094C41.2894 0.00681094 40.8324 0.463797 40.8324 1.12071V4.26251C40.8324 4.34819 40.8609 4.37675 40.9466 4.37675H58.3407C59.0548 4.37675 59.369 4.491 59.5118 4.69093C59.6546 4.83374 59.7974 5.11936 59.7974 5.80484V9.17512C59.7974 10.3176 59.4832 10.6032 58.3407 10.6032H48.0014C47.8871 10.6032 47.83 10.7175 47.9157 10.8031C49.6008 12.4026 54.1136 16.7725 57.3982 19.9715C57.3982 20 57.4268 20 57.4839 20H63.9674C64.0531 20 64.1388 19.8858 64.0531 19.8001C63.0534 18.8004 60.3401 16.2299 59.1405 15.0874C59.0548 15.0017 59.1119 14.8875 59.2262 14.8875C62.7964 14.5162 64.5672 13.2023 64.5672 9.4893V5.51922C64.5672 1.94901 62.625 0.00680542 59.0548 0.00680542L41.9463 0.00681094Z" fill="#0C62D5"/>
<path d="M69.1084 0.00681094C68.4515 0.00681094 67.9945 0.463797 67.9945 1.12071V18.8861C67.9945 19.543 68.4515 20 69.1084 20H71.6219C71.8789 20 72.1931 19.9429 72.4216 19.6858C72.6787 19.4288 72.7358 19.1146 72.7358 18.8861V1.12071C72.7358 0.892222 72.6787 0.57804 72.4216 0.320982C72.1931 0.0639285 71.8789 0.00680542 71.6219 0.00680542L69.1084 0.00681094Z" fill="#0C62D5"/>
<path d="M74.8489 0.54947C74.7632 0.692279 74.7347 0.835088 74.7347 1.03502C74.7347 1.26351 74.8489 1.43488 74.9346 1.63482L86.3879 19.2574C86.7021 19.7144 87.0162 20 87.5589 20H90.3008C90.8435 20 91.2719 19.6858 91.5004 19.2288L97.2128 10.4318L102.925 1.63482C103.011 1.43489 103.097 1.26352 103.125 1.03502C103.125 0.835093 103.097 0.692285 103.011 0.549475C102.925 0.378105 102.811 0.263856 102.668 0.178173C102.468 0.0639245 102.268 0.00680542 102.068 0.00680542H99.1264C98.5552 0.00680542 98.2696 0.349543 97.9554 0.806532C97.9554 0.77797 95.699 4.2625 93.4426 7.74703L88.9299 14.7161L79.9329 0.777969C79.8187 0.635159 79.6473 0.349545 79.3331 0.14961C79.0475 0.0639262 78.8476 0.00680542 78.7333 0.00680542H75.7915C75.5915 0.00680542 75.3916 0.0639245 75.1917 0.178173C75.0489 0.263856 74.9346 0.3781 74.8489 0.54947Z" fill="#0C62D5"/>
<path d="M105.124 18.9147C105.124 19.1431 105.21 19.4573 105.439 19.6858C105.467 19.7715 105.524 19.7715 105.553 19.8001C105.753 19.9429 105.981 20 106.238 20H127.06C127.288 20 127.574 19.9714 127.803 19.7715L127.888 19.6858C128.117 19.4288 128.174 19.1146 128.174 18.8861V16.744C128.174 16.5726 128.174 16.4583 128.145 16.4298C128.06 15.8871 127.545 15.6301 127.06 15.6301H106.21C105.839 15.6301 105.639 15.7443 105.382 16.0014C105.239 16.2013 105.153 16.4298 105.153 16.6868C105.124 16.7154 105.124 16.8296 105.124 17.0296V18.9147ZM105.153 1.03501C105.153 1.14926 105.124 1.2635 105.124 1.37775V3.29139C105.124 3.51988 105.182 3.83406 105.439 4.09112C105.524 4.11968 105.496 4.14824 105.581 4.1768C105.781 4.37673 106.038 4.37673 106.238 4.37673H126.946C127.174 4.37673 127.488 4.31961 127.745 4.09111C128.002 3.83406 128.06 3.51988 128.06 3.26282V1.1207C128.06 1.09213 128.031 1.00644 128.002 0.806513C127.917 0.435211 127.774 0.320965 127.46 0.121033C127.317 0.0353497 127.146 0.00678643 126.946 0.00678643H106.381C106.153 -0.0217747 105.81 0.0353445 105.553 0.263837L105.41 0.378084C105.21 0.578015 105.182 0.83508 105.153 1.03501ZM105.124 11.2601C105.153 11.5172 105.267 11.7171 105.439 11.8599C105.467 11.9456 105.524 11.9456 105.553 11.9742C105.781 12.1741 106.038 12.1741 106.238 12.1741H106.581H126.66C127.346 12.1741 127.774 11.7457 127.774 11.0602V8.94661C127.774 8.77524 127.774 8.66099 127.745 8.63243C127.717 8.4325 127.545 8.11832 127.346 8.03264C127.146 7.8327 126.889 7.83271 126.689 7.83271H106.438C106.181 7.80414 105.839 7.83271 105.581 8.0612L105.439 8.17545C105.267 8.37538 105.182 8.60387 105.182 8.8038L105.124 9.14654V11.2601Z" fill="#0C62D5"/>
<path d="M132.715 0.00681094C132.058 0.00681094 131.601 0.463797 131.601 1.12071V4.26251C131.601 4.34819 131.63 4.37675 131.715 4.37675H149.11C149.824 4.37675 150.138 4.491 150.281 4.69093C150.423 4.83374 150.566 5.11936 150.566 5.80484V9.17512C150.566 10.3176 150.252 10.6032 149.11 10.6032H138.77C138.656 10.6032 138.599 10.7175 138.685 10.8031C140.37 12.4026 144.882 16.7725 148.167 19.9715C148.167 20 148.196 20 148.253 20H154.736C154.822 20 154.908 19.8858 154.822 19.8001C153.822 18.8004 151.109 16.2299 149.909 15.0874C149.824 15.0017 149.881 14.8875 149.995 14.8875C153.565 14.5162 155.336 13.2023 155.336 9.4893V5.51922C155.336 1.94901 153.394 0.00680542 149.824 0.00680542L132.715 0.00681094Z" fill="#0C62D5"/>
</svg>
