<svg width="13" height="12" viewBox="0 0 13 12" fill="none" xmlns="http://www.w3.org/2000/svg">
<path d="M10.0612 12C9.44236 12 8.84887 11.7542 8.41128 11.3166C7.9737 10.879 7.72786 10.2855 7.72786 9.66667C7.72786 9.04783 7.9737 8.45434 8.41128 8.01675C8.84887 7.57917 9.44236 7.33333 10.0612 7.33333C10.68 7.33333 11.2735 7.57917 11.7111 8.01675C12.1487 8.45434 12.3945 9.04783 12.3945 9.66667C12.3945 10.2855 12.1487 10.879 11.7111 11.3166C11.2735 11.7542 10.68 12 10.0612 12ZM10.0612 10.6667C10.3264 10.6667 10.5807 10.5613 10.7683 10.3738C10.9558 10.1862 11.0612 9.93188 11.0612 9.66667C11.0612 9.40145 10.9558 9.1471 10.7683 8.95956C10.5807 8.77202 10.3264 8.66667 10.0612 8.66667C9.79598 8.66667 9.54163 8.77202 9.35409 8.95956C9.16655 9.1471 9.0612 9.40145 9.0612 9.66667C9.0612 9.93188 9.16655 10.1862 9.35409 10.3738C9.54163 10.5613 9.79598 10.6667 10.0612 10.6667ZM2.72786 4.66667C2.42145 4.66667 2.11803 4.60631 1.83494 4.48905C1.55184 4.37179 1.29462 4.19992 1.07795 3.98325C0.861278 3.76658 0.689406 3.50935 0.572145 3.22626C0.454885 2.94317 0.394531 2.63975 0.394531 2.33333C0.394531 2.02692 0.454885 1.7235 0.572145 1.44041C0.689406 1.15731 0.861278 0.900088 1.07795 0.683418C1.29462 0.466748 1.55184 0.294875 1.83494 0.177614C2.11803 0.0603534 2.42145 -6.45727e-09 2.72786 0C3.3467 1.3041e-08 3.94019 0.245833 4.37778 0.683418C4.81536 1.121 5.0612 1.71449 5.0612 2.33333C5.0612 2.95217 4.81536 3.54566 4.37778 3.98325C3.94019 4.42083 3.3467 4.66667 2.72786 4.66667ZM2.72786 3.33333C2.99308 3.33333 3.24743 3.22798 3.43497 3.04044C3.62251 2.8529 3.72786 2.59855 3.72786 2.33333C3.72786 2.06812 3.62251 1.81376 3.43497 1.62623C3.24743 1.43869 2.99308 1.33333 2.72786 1.33333C2.46265 1.33333 2.20829 1.43869 2.02076 1.62623C1.83322 1.81376 1.72786 2.06812 1.72786 2.33333C1.72786 2.59855 1.83322 2.8529 2.02076 3.04044C2.20829 3.22798 2.46265 3.33333 2.72786 3.33333ZM11.1085 0.343333L12.0512 1.286L1.6812 11.6567L0.738531 10.714L11.1085 0.343333Z" fill="#FC2539"/>
</svg>
