<svg width="17" height="16" viewBox="0 0 17 16" fill="none" xmlns="http://www.w3.org/2000/svg">
<mask id="mask0_382_1192" style="mask-type:luminance" maskUnits="userSpaceOnUse" x="0" y="0" width="17" height="16">
<path d="M16.7266 0H0.726562V16H16.7266V0Z" fill="white"/>
</mask>
<g mask="url(#mask0_382_1192)">
<path d="M14.0666 10.2533C13.2466 10.2533 12.4532 10.12 11.7132 9.88C11.4799 9.8 11.2199 9.86 11.0399 10.04L9.99323 11.3533C8.10656 10.4533 6.3399 8.75333 5.3999 6.8L6.6999 5.69333C6.8799 5.50667 6.93323 5.24667 6.8599 5.01333C6.61323 4.27333 6.48656 3.48 6.48656 2.66C6.48656 2.3 6.18656 2 5.82656 2H3.5199C3.1599 2 2.72656 2.16 2.72656 2.66C2.72656 8.85333 7.8799 14 14.0666 14C14.5399 14 14.7266 13.58 14.7266 13.2133V10.9133C14.7266 10.5533 14.4266 10.2533 14.0666 10.2533Z" fill="white"/>
</g>
</svg>
