<svg width="12" height="18" viewBox="0 0 12 18" fill="none" xmlns="http://www.w3.org/2000/svg">
<g clip-path="url(#clip0_395_1729)">
<path d="M9.5 0.5H2.5C1.39543 0.5 0.5 1.39543 0.5 2.5V15.5C0.5 16.6046 1.39543 17.5 2.5 17.5H9.5C10.6046 17.5 11.5 16.6046 11.5 15.5V2.5C11.5 1.39543 10.6046 0.5 9.5 0.5Z" fill="#EDEDED" stroke="white"/>
<path d="M10 1H2C1.44772 1 1 1.44772 1 2V13C1 13.5523 1.44772 14 2 14H10C10.5523 14 11 13.5523 11 13V2C11 1.44772 10.5523 1 10 1Z" fill="#152242"/>
<path d="M6 17C6.55228 17 7 16.5523 7 16C7 15.4477 6.55228 15 6 15C5.44772 15 5 15.4477 5 16C5 16.5523 5.44772 17 6 17Z" fill="#333333"/>
</g>
<defs>
<clipPath id="clip0_395_1729">
<rect width="12" height="18" fill="white"/>
</clipPath>
</defs>
</svg>
