<svg width="17" height="17" viewBox="0 0 17 17" fill="none" xmlns="http://www.w3.org/2000/svg">
<g clip-path="url(#clip0_382_1251)">
<g clip-path="url(#clip1_382_1251)">
<path d="M9.34339 0.525C5.34339 0.525 2.09964 3.75313 2.09964 7.7375C2.09964 9.51563 2.74652 11.1437 3.81839 12.4L0.777767 15.4281C0.662142 15.5375 0.596517 15.6875 0.590267 15.8469C0.577767 16.1844 0.843392 16.4656 1.18089 16.475C1.34964 16.4688 1.50902 16.3938 1.62152 16.2688L4.68714 13.2656C5.94652 14.3188 7.57152 14.9531 9.34339 14.9531C13.3465 14.9531 16.5903 11.725 16.5903 7.74062C16.5903 3.75625 13.3465 0.525 9.34339 0.525ZM9.34339 13.7344C6.01839 13.7344 3.32152 11.05 3.32152 7.74062C3.32152 4.43125 6.01839 1.74375 9.34339 1.74375C12.6684 1.74375 15.3653 4.42813 15.3653 7.7375C15.3653 11.0469 12.6715 13.7344 9.34339 13.7344Z" fill="#0C62D5"/>
<path d="M9.34297 3.07188C9.00547 3.07188 8.73047 3.34375 8.73047 3.68125C8.73047 4.01875 9.00547 4.29063 9.34297 4.29063C11.2523 4.29688 12.7992 5.8375 12.8055 7.7375C12.8055 8.075 13.0805 8.34688 13.418 8.34688C13.7555 8.34688 14.0305 8.075 14.0305 7.7375C14.0273 5.1625 11.9305 3.07813 9.34297 3.07188Z" fill="#0C62D5"/>
</g>
</g>
<defs>
<clipPath id="clip0_382_1251">
<rect width="16" height="16" fill="white" transform="translate(0.589844 0.5)"/>
</clipPath>
<clipPath id="clip1_382_1251">
<rect width="16" height="16" fill="white" transform="translate(0.589844 0.5)"/>
</clipPath>
</defs>
</svg>
