<svg width="28" height="28" viewBox="0 0 28 28" fill="none" xmlns="http://www.w3.org/2000/svg">
<g clip-path="url(#clip0_395_1779)">
<path d="M14 0C6.26795 0 0 6.26795 0 14C0 21.732 6.26795 28 14 28C21.732 28 28 21.732 28 14C28 6.26795 21.732 0 14 0Z" fill="#40B3E0"/>
<path d="M20.8103 8.0532L18.3098 20.6607C18.3098 20.6607 17.96 21.5351 16.9983 21.1154L11.228 16.6914L9.12971 15.6772L5.59752 14.4881C5.59752 14.4881 5.05545 14.2959 5.00295 13.8762C4.95045 13.4566 5.61502 13.2293 5.61502 13.2293L19.6561 7.72114C19.6561 7.72114 20.8103 7.21386 20.8103 8.0532Z" fill="white"/>
<path d="M10.7877 20.5193C10.7877 20.5193 10.6193 20.5036 10.4093 19.839C10.1996 19.1745 9.13281 15.6774 9.13281 15.6774L17.6136 10.2918C17.6136 10.2918 18.1032 9.99449 18.0857 10.2918C18.0857 10.2918 18.1731 10.3443 17.9107 10.589C17.6486 10.834 11.2487 16.5867 11.2487 16.5867" fill="#D2E5F1"/>
<path d="M13.441 18.3876L11.1588 20.4685C11.1588 20.4685 10.9803 20.604 10.7852 20.5191L11.2222 16.6538" fill="#B5CFE4"/>
</g>
<defs>
<clipPath id="clip0_395_1779">
<rect width="28" height="28" fill="white"/>
</clipPath>
</defs>
</svg>
