<svg width="28" height="28" viewBox="0 0 28 28" fill="none" xmlns="http://www.w3.org/2000/svg">
<g clip-path="url(#clip0_395_1784)">
<path d="M0 14C0 6.26801 6.26801 0 14 0C21.732 0 28 6.26801 28 14C28 21.732 21.732 28 14 28C6.26801 28 0 21.732 0 14Z" fill="#8F5DB7"/>
<mask id="mask0_395_1784" style="mask-type:luminance" maskUnits="userSpaceOnUse" x="5" y="5" width="19" height="19">
<path d="M23.5672 5.3667H5.36719V23.5667H23.5672V5.3667Z" fill="white"/>
</mask>
<g mask="url(#mask0_395_1784)">
<path d="M14.0103 5.36935C12.5498 5.38698 9.40968 5.62699 7.65341 7.23826C6.34699 8.53273 5.89085 10.4466 5.83739 12.8131C5.79303 15.1711 5.73956 19.5994 10.008 20.8052V22.6417C10.008 22.6417 9.98132 23.3766 10.467 23.5272C11.0654 23.7167 11.406 23.1513 11.9747 22.5439L13.0355 21.3444C15.956 21.5873 18.1929 21.0276 18.4505 20.9446C19.0432 20.7551 22.3812 20.3286 22.9266 15.8998C23.4862 11.3259 22.6542 8.44401 21.1521 7.14043H21.143C20.6897 6.72297 18.868 5.39551 14.798 5.38072C14.798 5.38072 14.4961 5.36082 14.0103 5.36935ZM14.0604 6.65529C14.475 6.65245 14.727 6.67008 14.727 6.67008C18.1718 6.67918 19.8161 7.71601 20.204 8.06522C21.4689 9.14922 22.1207 11.7473 21.6435 15.5659C21.1902 19.2684 18.483 19.5028 17.9819 19.6626C17.7686 19.7309 15.7985 20.2166 13.3165 20.0567C13.3165 20.0567 11.468 22.2873 10.8902 22.8618C10.7986 22.9625 10.6916 22.9921 10.6234 22.9773C10.5256 22.9534 10.496 22.8322 10.5017 22.6661L10.5194 19.6182C6.89925 18.6173 7.11253 14.8401 7.1512 12.8672C7.19557 10.8941 7.56582 9.28004 8.66806 8.18693C10.1519 6.84525 12.8182 6.66439 14.0593 6.65529H14.0604ZM14.3334 8.62772C14.3036 8.62742 14.274 8.63302 14.2464 8.64419C14.2188 8.65538 14.1937 8.6719 14.1725 8.69284C14.1512 8.71378 14.1344 8.7387 14.1229 8.76615C14.1113 8.79363 14.1054 8.82311 14.1053 8.85295C14.1053 8.98035 14.2088 9.08097 14.3334 9.08097C14.8973 9.0703 15.4578 9.17127 15.9824 9.37821C16.5072 9.58524 16.9856 9.89394 17.3904 10.2867C18.2168 11.0893 18.6195 12.1676 18.6348 13.5775C18.6348 13.7021 18.7355 13.8056 18.8629 13.8056V13.7965C18.9229 13.7967 18.9806 13.7731 19.0233 13.7309C19.0661 13.6887 19.0903 13.6313 19.0909 13.5713C19.1186 12.9076 19.011 12.2453 18.7746 11.6245C18.5383 11.0038 18.1782 10.4376 17.7163 9.96026C16.8159 9.08045 15.675 8.62772 14.3334 8.62772ZM11.3355 9.14922C11.1745 9.12577 11.0103 9.15806 10.8702 9.24084H10.8583C10.5331 9.43141 10.2402 9.67239 9.99042 9.95457C9.78278 10.1946 9.67017 10.4375 9.64059 10.6712C9.62301 10.8106 9.63491 10.9499 9.67647 11.083L9.69126 11.0921C9.92497 11.7791 10.2304 12.44 10.6035 13.0622C11.0841 13.9364 11.6756 14.7448 12.3632 15.4675L12.3837 15.4971L12.4161 15.521L12.4366 15.5449L12.4605 15.5653C13.1857 16.255 13.9962 16.8492 14.872 17.3335C15.873 17.8784 16.4804 18.1361 16.845 18.243V18.2487C16.9519 18.2811 17.0491 18.2959 17.147 18.2959C17.4577 18.2731 17.7518 18.147 17.9825 17.9376C18.2635 17.6877 18.5017 17.3936 18.6877 17.0668V17.0611C18.8623 16.7324 18.8032 16.4213 18.5512 16.2108C18.0466 15.7698 17.501 15.378 16.9217 15.0409C16.5338 14.8305 16.1397 14.9579 15.9799 15.1712L15.6392 15.6006C15.4646 15.8138 15.1472 15.7843 15.1472 15.7843L15.1381 15.7899C12.7716 15.1854 12.1403 12.7892 12.1403 12.7892C12.1403 12.7892 12.1107 12.4634 12.3296 12.2973L12.7562 11.9538C12.9604 11.7877 13.1026 11.3941 12.8836 11.0056C12.5488 10.4256 12.158 9.87985 11.7165 9.3762C11.62 9.25746 11.4847 9.1767 11.3343 9.14809L11.3355 9.14922ZM14.727 9.8249C14.4249 9.8249 14.4249 10.281 14.7298 10.281C15.1053 10.2872 15.476 10.3672 15.8205 10.5166C16.1651 10.666 16.4769 10.8819 16.7381 11.1518C16.9762 11.4146 17.1593 11.7225 17.2764 12.0573C17.3934 12.3921 17.442 12.747 17.4194 13.1009C17.4205 13.1608 17.4449 13.218 17.4875 13.2601C17.5301 13.3021 17.5876 13.3259 17.6475 13.3261L17.6566 13.3381C17.7169 13.3377 17.7747 13.3135 17.8174 13.2708C17.86 13.2281 17.8842 13.1704 17.8847 13.11C17.9051 12.2063 17.6242 11.4481 17.073 10.8407C16.5191 10.2333 15.7462 9.89262 14.7593 9.8249H14.727ZM15.1006 11.0511C14.7895 11.042 14.7775 11.5073 15.0858 11.5164C15.8354 11.555 16.1994 11.9338 16.2472 12.713C16.2482 12.7722 16.2724 12.8286 16.3145 12.8702C16.3566 12.9117 16.4133 12.9352 16.4724 12.9354H16.4815C16.512 12.9341 16.5418 12.9268 16.5694 12.9138C16.5969 12.9009 16.6216 12.8825 16.642 12.8599C16.6624 12.8373 16.678 12.8108 16.6881 12.7821C16.6981 12.7534 16.7024 12.723 16.7005 12.6925C16.6471 11.6768 16.0931 11.1046 15.1097 11.0517L15.1006 11.0511Z" fill="white"/>
</g>
</g>
<defs>
<clipPath id="clip0_395_1784">
<rect width="28" height="28" fill="white"/>
</clipPath>
</defs>
</svg>
