<svg width="28" height="28" viewBox="0 0 28 28" fill="none" xmlns="http://www.w3.org/2000/svg">
<g clip-path="url(#clip0_395_1772)">
<path d="M0 14C0 6.26801 6.26801 0 14 0C21.732 0 28 6.26801 28 14C28 21.732 21.732 28 14 28C6.26801 28 0 21.732 0 14Z" fill="#FF0000"/>
<path fill-rule="evenodd" clip-rule="evenodd" d="M21.5191 7.66519C22.3478 7.88703 22.999 8.53831 23.2209 9.36711C23.6234 10.8677 23.625 14.0005 23.625 14.0005C23.625 14.0005 23.625 17.1334 23.2225 18.634C23.0007 19.4627 22.3494 20.114 21.5205 20.3358C20.02 20.7384 14 20.7384 14 20.7384C14 20.7384 7.98002 20.7384 6.47938 20.3358C5.65062 20.114 4.99934 19.4627 4.77749 18.634C4.375 17.1334 4.375 14.0005 4.375 14.0005C4.375 14.0005 4.375 10.8677 4.77591 9.36711C4.99775 8.53831 5.65062 7.88703 6.47779 7.66519C7.97843 7.2627 13.9984 7.2627 13.9984 7.2627C13.9984 7.2627 20.0184 7.2627 21.5191 7.66519ZM17.0741 14.0009L12.0746 16.8881V11.1137L17.0741 14.0009Z" fill="white"/>
</g>
<defs>
<clipPath id="clip0_395_1772">
<rect width="28" height="28" fill="white"/>
</clipPath>
</defs>
</svg>
