<svg width="18" height="40" viewBox="0 0 18 40" fill="none" xmlns="http://www.w3.org/2000/svg">
<g clip-path="url(#clip0_348_2640)">
<path d="M0.365061 39.662C0.537261 39.8764 0.766862 39.9955 1.00786 39.9955C1.24896 39.9955 1.48426 39.8764 1.65066 39.662L16.8084 20.8114C16.9806 20.603 17.0781 20.3112 17.0781 20.0134C17.0781 19.7156 16.9806 19.4237 16.8084 19.2153L1.65076 0.358788C1.48426 0.132488 1.24896 0.00738855 1.00216 0.00138855C0.755361 -0.00451145 0.520061 0.114588 0.342161 0.334988C0.169961 0.549388 0.0723612 0.84719 0.0781612 1.15089C0.0838612 1.45469 0.187161 1.74649 0.365061 1.96089L14.88 20.0134L0.365061 38.0658C0.192861 38.2802 0.0953617 38.5661 0.0953617 38.8639C0.101062 39.1676 0.192861 39.4535 0.365061 39.662Z" fill="white"/>
</g>
<defs>
<clipPath id="clip0_348_2640">
<rect width="18" height="40" fill="white" transform="matrix(-1 0 0 -1 18 40)"/>
</clipPath>
</defs>
</svg>
