<svg width="18" height="40" viewBox="0 0 18 40" fill="none" xmlns="http://www.w3.org/2000/svg">
<path d="M17.6349 0.338032C17.4627 0.123619 17.2331 0.00450136 16.9921 0.00450134C16.751 0.00450132 16.5157 0.123619 16.3493 0.338031L1.19163 19.1886C1.01945 19.397 0.921875 19.6888 0.921875 19.9866C0.921875 20.2844 1.01945 20.5763 1.19163 20.7847L16.3492 39.6412C16.5157 39.8675 16.751 39.9926 16.9978 39.9986C17.2446 40.0045 17.4799 39.8854 17.6578 39.665C17.83 39.4506 17.9276 39.1528 17.9218 38.8491C17.9161 38.5453 17.8128 38.2535 17.6349 38.0391L3.12005 19.9866L17.6349 1.93423C17.8071 1.71981 17.9046 1.43393 17.9046 1.13613C17.8989 0.832374 17.8071 0.54649 17.6349 0.338032Z" fill="white"/>
</svg>
