<svg xmlns="http://www.w3.org/2000/svg" width="18" height="18" fill="none"><g clip-path="url(#a)"><path fill="#0C62D5" d="M9 1.8a7.18 7.18 0 0 0-4.676 1.725.6.6 0 1 0 .78.912A5.97 5.97 0 0 1 9 3a5.99 5.99 0 0 1 5.97 5.4H13.2l2.4 3.6L18 8.4h-1.83C15.862 4.711 12.766 1.8 9 1.8M2.4 6 0 9.6h1.83c.307 3.69 3.403 6.6 7.17 6.6a7.18 7.18 0 0 0 4.676-1.725.6.6 0 1 0-.78-.912A5.97 5.97 0 0 1 9 15a5.99 5.99 0 0 1-5.97-5.4H4.8z"/></g><defs><clipPath id="a"><path fill="#fff" d="M0 0h18v18H0z"/></clipPath></defs></svg>