<svg width="34" height="32" viewBox="0 0 34 32" fill="none" xmlns="http://www.w3.org/2000/svg">
<g filter="url(#filter0_dd_109_446)">
<path d="M17 28C23.6274 28 29 22.6274 29 16C29 9.37258 23.6274 4 17 4C10.3726 4 5 9.37258 5 16C5 22.6274 10.3726 28 17 28Z" fill="#4CAF50"/>
</g>
<path fill-rule="evenodd" clip-rule="evenodd" d="M22.1484 11.312C22.418 11.5046 22.4805 11.8793 22.2879 12.149L16.2879 20.549C16.1909 20.6848 16.0417 20.7741 15.8762 20.7953C15.7106 20.8166 15.5437 20.768 15.4155 20.6612L11.8155 17.6612C11.5609 17.449 11.5266 17.0707 11.7387 16.8161C11.9508 16.5616 12.3292 16.5272 12.5837 16.7393L15.6871 19.3255L21.3114 11.4515C21.504 11.1819 21.8787 11.1194 22.1484 11.312Z" fill="white"/>
<defs>
<filter id="filter0_dd_109_446" x="5" y="4" width="24" height="24" filterUnits="userSpaceOnUse" color-interpolation-filters="sRGB">
<feFlood flood-opacity="0" result="BackgroundImageFix"/>
<feColorMatrix in="SourceAlpha" type="matrix" values="0 0 0 0 0 0 0 0 0 0 0 0 0 0 0 0 0 0 127 0" result="hardAlpha"/>
<feOffset/>
<feColorMatrix type="matrix" values="0 0 0 0 0.298039 0 0 0 0 0.686275 0 0 0 0 0.313726 0 0 0 0.3 0"/>
<feBlend mode="normal" in2="BackgroundImageFix" result="effect1_dropShadow_109_446"/>
<feColorMatrix in="SourceAlpha" type="matrix" values="0 0 0 0 0 0 0 0 0 0 0 0 0 0 0 0 0 0 127 0" result="hardAlpha"/>
<feOffset/>
<feColorMatrix type="matrix" values="0 0 0 0 0.298039 0 0 0 0 0.686275 0 0 0 0 0.313726 0 0 0 0.15 0"/>
<feBlend mode="normal" in2="effect1_dropShadow_109_446" result="effect2_dropShadow_109_446"/>
<feBlend mode="normal" in="SourceGraphic" in2="effect2_dropShadow_109_446" result="shape"/>
</filter>
</defs>
</svg>
