<svg width="156" height="20" viewBox="0 0 156 20" fill="none" xmlns="http://www.w3.org/2000/svg">
<path d="M1.104 7.17009C0.452924 7.17009 0 7.46335 0 7.8849V19.2852C0 19.7067 0.452928 20 1.104 20H3.59508C3.84984 20 4.16123 19.9633 4.3877 19.7984C4.64246 19.6334 4.69908 19.4318 4.69908 19.2852V7.8849C4.69908 7.73827 4.64247 7.53666 4.3877 7.3717C4.16123 7.20675 3.84985 7.17009 3.59508 7.17009L1.104 7.17009Z" fill="white"/>
<path d="M1.104 1.01119e-06C0.452924 1.01119e-06 0 0.083788 0 0.204232V3.46146C0 3.5819 0.452928 3.66569 1.104 3.66569H3.59508C3.84984 3.66569 4.16123 3.65522 4.3877 3.60809C4.64246 3.56096 4.69908 3.50335 4.69908 3.46146V0.204232C4.69908 0.162338 4.64247 0.104734 4.3877 0.0576033C4.16123 0.0104733 3.84985 0 3.59508 0L1.104 1.01119e-06Z" fill="white"/>
<path d="M11.6992 4.2625C11.6992 4.34818 11.7278 4.37674 11.8135 4.37674H31.264C31.9495 4.37674 32.2637 4.49099 32.4065 4.69093C32.5493 4.83374 32.6921 5.11935 32.6921 5.80483V14.2305C32.6921 15.3444 32.3779 15.6301 31.264 15.6301H11.8135C11.7278 15.6301 11.6992 15.6586 11.6992 15.7443V18.8861C11.6992 19.543 12.1562 20 12.8131 20H31.921C35.5769 20 37.4048 18.1721 37.4048 14.4876V5.51922C37.4048 1.83475 35.5769 0.00679779 31.921 0.00679779H12.8131C12.5846 0.00679779 12.3847 0.0639187 12.1848 0.206728L11.9563 0.406664C11.8706 0.492347 11.8135 0.606596 11.7849 0.692283C11.7563 0.720844 11.7563 0.749404 11.7563 0.80653C11.7278 1.00646 11.6992 1.09215 11.6992 1.12071L11.6992 4.2625Z" fill="white"/>
<path d="M41.9459 0.00680331C41.289 0.00680331 40.832 0.46379 40.832 1.12071V4.2625C40.832 4.34818 40.8606 4.37674 40.9463 4.37674H58.3404C59.0545 4.37674 59.3686 4.49099 59.5114 4.69093C59.6542 4.83374 59.7971 5.11935 59.7971 5.80483V9.17511C59.7971 10.3176 59.4829 10.6032 58.3404 10.6032H48.001C47.8868 10.6032 47.8297 10.7174 47.9154 10.8031C49.6005 12.4026 54.1133 16.7725 57.3979 19.9715C57.3979 20 57.4264 20 57.4836 20H63.9671C64.0528 20 64.1384 19.8858 64.0528 19.8001C63.0531 18.8004 60.3397 16.2299 59.1401 15.0874C59.0545 15.0017 59.1116 14.8875 59.2258 14.8875C62.796 14.5162 64.5669 13.2023 64.5669 9.4893V5.51922C64.5669 1.949 62.6247 0.00679779 59.0545 0.00679779L41.9459 0.00680331Z" fill="white"/>
<path d="M69.11 0.00680331C68.4531 0.00680331 67.9961 0.46379 67.9961 1.12071V18.8861C67.9961 19.543 68.4531 20 69.11 20H71.6234C71.8805 20 72.1947 19.9429 72.4232 19.6858C72.6802 19.4288 72.7373 19.1146 72.7373 18.8861V1.12071C72.7373 0.892214 72.6802 0.578032 72.4232 0.320975C72.1947 0.0639208 71.8805 0.00679779 71.6234 0.00679779L69.11 0.00680331Z" fill="white"/>
<path d="M74.8486 0.549462C74.7629 0.692271 74.7344 0.83508 74.7344 1.03501C74.7344 1.2635 74.8486 1.43488 74.9343 1.63481L86.3876 19.2574C86.7018 19.7144 87.0159 20 87.5586 20H90.3005C90.8432 20 91.2716 19.6858 91.5001 19.2288L97.2125 10.4318L102.925 1.63481C103.011 1.43488 103.096 1.26351 103.125 1.03502C103.125 0.835086 103.096 0.692277 103.011 0.549468C102.925 0.378097 102.811 0.263848 102.668 0.178165C102.468 0.0639168 102.268 0.00679779 102.068 0.00679779H99.1261C98.5549 0.00679779 98.2693 0.349535 97.9551 0.806524C97.9551 0.777963 95.6987 4.26249 93.4423 7.74702L88.9296 14.7161L79.9326 0.777961C79.8184 0.635152 79.647 0.349537 79.3328 0.149602C79.0472 0.0639185 78.8473 0.00679779 78.733 0.00679779H75.7912C75.5912 0.00679779 75.3913 0.0639168 75.1914 0.178165C75.0486 0.263848 74.9343 0.378092 74.8486 0.549462Z" fill="white"/>
<path d="M105.125 18.9147C105.125 19.1431 105.211 19.4573 105.439 19.6858C105.468 19.7715 105.525 19.7715 105.553 19.8001C105.753 19.9429 105.982 20 106.239 20H127.06C127.289 20 127.575 19.9714 127.803 19.7715L127.889 19.6858C128.117 19.4288 128.174 19.1146 128.174 18.8861V16.744C128.174 16.5726 128.174 16.4583 128.146 16.4298C128.06 15.8871 127.546 15.63 127.06 15.63H106.21C105.839 15.63 105.639 15.7443 105.382 16.0014C105.239 16.2013 105.154 16.4298 105.154 16.6868C105.125 16.7154 105.125 16.8296 105.125 17.0296V18.9147ZM105.154 1.03501C105.154 1.14926 105.125 1.2635 105.125 1.37775V3.29138C105.125 3.51988 105.182 3.83406 105.439 4.09111C105.525 4.11968 105.496 4.14824 105.582 4.1768C105.782 4.37673 106.039 4.37673 106.239 4.37673H126.946C127.175 4.37673 127.489 4.31961 127.746 4.09111C128.003 3.83406 128.06 3.51988 128.06 3.26282V1.12069C128.06 1.09213 128.032 1.00644 128.003 0.806509C127.917 0.435207 127.774 0.320961 127.46 0.121029C127.318 0.0353459 127.146 0.00678262 126.946 0.00678262H106.382C106.153 -0.0217785 105.81 0.0353407 105.553 0.263833L105.411 0.37808C105.211 0.578012 105.182 0.835076 105.154 1.03501ZM105.125 11.2601C105.154 11.5172 105.268 11.7171 105.439 11.8599C105.468 11.9456 105.525 11.9456 105.553 11.9741C105.782 12.1741 106.039 12.1741 106.239 12.1741H106.582H126.661C127.346 12.1741 127.774 11.7457 127.774 11.0602V8.9466C127.774 8.77523 127.774 8.66099 127.746 8.63243C127.717 8.4325 127.546 8.11832 127.346 8.03263C127.146 7.8327 126.889 7.8327 126.689 7.8327H106.439C106.182 7.80414 105.839 7.8327 105.582 8.0612L105.439 8.17544C105.268 8.37537 105.182 8.60387 105.182 8.8038L105.125 9.14654V11.2601Z" fill="white"/>
<path d="M132.715 0.00680331C132.059 0.00680331 131.602 0.46379 131.602 1.12071V4.2625C131.602 4.34818 131.63 4.37674 131.716 4.37674H149.11C149.824 4.37674 150.138 4.49099 150.281 4.69093C150.424 4.83374 150.567 5.11935 150.567 5.80483V9.17511C150.567 10.3176 150.252 10.6032 149.11 10.6032H138.771C138.656 10.6032 138.599 10.7174 138.685 10.8031C140.37 12.4026 144.883 16.7725 148.167 19.9715C148.167 20 148.196 20 148.253 20H154.737C154.822 20 154.908 19.8858 154.822 19.8001C153.823 18.8004 151.109 16.2299 149.91 15.0874C149.824 15.0017 149.881 14.8875 149.995 14.8875C153.566 14.5162 155.336 13.2023 155.336 9.4893V5.51922C155.336 1.949 153.394 0.00679779 149.824 0.00679779L132.715 0.00680331Z" fill="white"/>
</svg>
