<svg width="18" height="18" viewBox="0 0 18 18" fill="none" xmlns="http://www.w3.org/2000/svg">
<g clip-path="url(#clip0_538_1821)">
<path d="M8.71543 17.4309C13.5288 17.4309 17.4309 13.5288 17.4309 8.71543C17.4309 3.90203 13.5288 0 8.71543 0C3.90203 0 0 3.90203 0 8.71543C0 13.5288 3.90203 17.4309 8.71543 17.4309Z" fill="url(#paint0_linear_538_1821)"/>
<path d="M5.8291 9.40546L6.82938 12.1305L11.2791 5.94458L5.8291 9.40546Z" fill="#C2DAEC"/>
<path d="M6.94435 10.0148L6.84082 12.1533L9.18645 10.1642L6.94435 10.0148Z" fill="#9FCDE2"/>
<path d="M12.3601 4.90966L3.59861 8.24403C3.34566 8.33607 3.35716 8.69247 3.61011 8.77294L5.86373 9.53185L11.0148 6.20893L6.94449 10.0147L10.1179 12.4178C10.4514 12.6708 10.9228 12.4983 11.0263 12.0959L12.7394 5.23159C12.7969 5.01314 12.5785 4.82917 12.3601 4.90966Z" fill="#ECF8FD"/>
</g>
<defs>
<linearGradient id="paint0_linear_538_1821" x1="2.5512" y1="2.5512" x2="14.8696" y2="14.8696" gradientUnits="userSpaceOnUse">
<stop stop-color="#00AFE5"/>
<stop offset="1" stop-color="#0094D4"/>
</linearGradient>
<clipPath id="clip0_538_1821">
<rect width="18" height="18" fill="white"/>
</clipPath>
</defs>
</svg>
