<svg width="18" height="18" viewBox="0 0 18 18" fill="none" xmlns="http://www.w3.org/2000/svg">
<g clip-path="url(#clip0_538_1826)">
<path d="M8.71543 17.4309C13.5288 17.4309 17.4309 13.5288 17.4309 8.71543C17.4309 3.90203 13.5288 0 8.71543 0C3.90203 0 0 3.90203 0 8.71543C0 13.5288 3.90203 17.4309 8.71543 17.4309Z" fill="#7360F2"/>
<path d="M12.2407 5.08394C11.982 4.84431 10.9368 4.08243 8.6086 4.07208C8.6086 4.07208 5.86314 3.90584 4.52475 5.13852C3.77973 5.88678 3.51764 6.98158 3.49 8.33896C3.46235 9.69633 3.42658 12.2401 5.8686 12.9298H5.87092L5.86935 13.9823C5.86935 13.9823 5.85373 14.4084 6.1332 14.4953C6.47119 14.6007 6.66954 14.2768 6.9922 13.9277C7.16936 13.7361 7.41393 13.4546 7.59822 13.2394C9.26833 13.3805 10.5528 13.058 10.6988 13.0102C11.0359 12.9005 12.9441 12.6549 13.2545 10.1114C13.5748 7.48971 13.0995 5.83138 12.2407 5.08394ZM12.5237 9.92342C12.2617 12.0472 10.714 12.1806 10.4287 12.2725C10.3073 12.3117 9.17915 12.5936 7.76051 12.5006C7.76051 12.5006 6.70345 13.7811 6.37324 14.1141C6.32168 14.1661 6.26111 14.1871 6.22064 14.1768C6.1638 14.1628 6.14818 14.0952 6.14882 13.9964C6.14975 13.8553 6.15788 12.2475 6.15788 12.2475C4.09211 11.6716 4.21253 9.50652 4.23596 8.37281C4.25939 7.2391 4.47149 6.31036 5.10155 5.6857C6.23359 4.65611 8.56564 4.80996 8.56564 4.80996C10.5351 4.81859 11.4787 5.41407 11.6976 5.61356C12.4241 6.23818 12.7943 7.73294 12.5237 9.92278V9.92342Z" fill="white"/>
<path d="M9.566 8.41179C9.53226 8.41179 9.4998 8.39872 9.47536 8.37538C9.45091 8.35204 9.43634 8.32016 9.43465 8.28631C9.4123 7.83759 9.20176 7.61787 8.77208 7.5947C8.73788 7.59198 8.70606 7.57589 8.68341 7.54994C8.66083 7.52398 8.64921 7.49019 8.65107 7.45576C8.65293 7.42132 8.66808 7.38898 8.69334 7.36564C8.7186 7.34224 8.75199 7.32976 8.7863 7.33074C9.35325 7.3621 9.66848 7.6872 9.69751 8.27313C9.69838 8.29049 9.69583 8.30779 9.69002 8.32417C9.68421 8.34054 9.67521 8.35558 9.66366 8.36841C9.65205 8.3813 9.63799 8.39176 9.62238 8.39919C9.60676 8.40662 9.5898 8.41092 9.57256 8.41179H9.566Z" fill="white"/>
<path d="M10.2425 8.63939H10.2394C10.2045 8.63852 10.1714 8.62383 10.1472 8.59852C10.1231 8.57314 10.1101 8.53923 10.1109 8.50416C10.121 8.05236 9.99247 7.6865 9.71789 7.38567C9.4433 7.08489 9.06919 6.92179 8.57053 6.88509C8.53563 6.88254 8.50317 6.86616 8.4803 6.83957C8.45748 6.81298 8.44604 6.77843 8.44859 6.74336C8.45115 6.70834 8.46747 6.67577 8.49388 6.65283C8.52036 6.6299 8.55485 6.6184 8.58969 6.62096C9.15088 6.66224 9.59572 6.85937 9.91199 7.20671C10.2283 7.55411 10.3856 7.99354 10.374 8.50968C10.3733 8.54428 10.3591 8.57721 10.3346 8.60142C10.31 8.62569 10.2769 8.63928 10.2425 8.63939Z" fill="white"/>
<path d="M10.934 8.91063C10.8992 8.91057 10.8659 8.89675 10.8413 8.87219C10.8166 8.84763 10.8026 8.81424 10.8023 8.77934C10.7962 7.9712 10.5644 7.35392 10.0937 6.89254C9.62853 6.43772 9.04098 6.20436 8.34705 6.19936C8.32974 6.19931 8.31261 6.19582 8.29671 6.18909C8.28074 6.18241 8.26622 6.1726 8.25409 6.16029C8.22947 6.13543 8.2157 6.10176 8.21582 6.06669C8.21594 6.03161 8.22993 5.99805 8.25472 5.97332C8.27952 5.94864 8.31302 5.93482 8.34798 5.93494H8.34908C9.11315 5.94057 9.76196 6.19901 10.2775 6.70342C10.7931 7.20777 11.0589 7.90692 11.0658 8.77778C11.066 8.81285 11.0524 8.84652 11.0279 8.87149C11.0035 8.89646 10.9701 8.91063 10.9352 8.91092L10.934 8.91063Z" fill="white"/>
<path d="M8.80688 10.0504C8.80688 10.0504 8.99193 10.0661 9.09163 9.94285L9.28591 9.69741C9.37963 9.57571 9.60579 9.49808 9.82725 9.62193C9.99319 9.71698 10.1543 9.82034 10.3101 9.93153C10.457 10.0401 10.7589 10.2922 10.7589 10.2922C10.9023 10.4138 10.9354 10.5922 10.8378 10.7805L10.837 10.7844C10.7295 10.9715 10.593 11.1403 10.4326 11.2844C10.4308 11.2853 10.4308 11.2862 10.429 11.2872C10.2897 11.404 10.1529 11.4705 10.0185 11.4865C9.99865 11.49 9.9785 11.4913 9.95847 11.4903C9.89919 11.4909 9.84019 11.4817 9.78381 11.4633L9.77946 11.4569C9.57234 11.3982 9.22657 11.2514 8.65068 10.9324C8.31745 10.75 8.00019 10.5396 7.70232 10.3034C7.55298 10.185 7.4106 10.0582 7.27578 9.92352L7.26137 9.90912L7.24703 9.89466L7.23263 9.88026C7.22781 9.87556 7.22311 9.87068 7.21829 9.8658C7.0841 9.73045 6.95781 9.58744 6.84 9.43752C6.60478 9.13849 6.39523 8.81994 6.21348 8.48543C5.89581 7.907 5.74963 7.56012 5.69122 7.35184L5.68481 7.34743C5.66651 7.29087 5.65748 7.23165 5.6581 7.17213C5.65701 7.15198 5.65822 7.13178 5.6617 7.11192C5.67846 6.97715 5.74474 6.83959 5.86051 6.69925C5.86144 6.69757 5.86243 6.69757 5.86336 6.69565C6.00678 6.53464 6.17487 6.39767 6.36126 6.28978L6.36515 6.28885C6.55258 6.19084 6.73032 6.22405 6.85121 6.36724C6.85219 6.36823 7.10286 6.67039 7.21045 6.81799C7.32124 6.97448 7.42413 7.13642 7.51878 7.30324C7.64216 7.52545 7.56488 7.75301 7.44364 7.84678L7.19925 8.04188C7.07586 8.14198 7.09206 8.32779 7.09206 8.32779C7.09206 8.32779 7.45409 9.70369 8.80688 10.0504Z" fill="white"/>
</g>
<defs>
<clipPath id="clip0_538_1826">
<rect width="18" height="18" fill="white"/>
</clipPath>
</defs>
</svg>
